<svg width="34" height="30" viewBox="0 0 34 30" fill="none" xmlns="http://www.w3.org/2000/svg">
<path d="M13.7197 27.9412C13.7197 28.3484 13.5972 28.7464 13.3678 29.085C13.1384 29.4236 12.8123 29.6875 12.4308 29.8433C12.0494 29.9991 11.6296 30.0399 11.2246 29.9604C10.8196 29.881 10.4476 29.6849 10.1556 29.397C9.86363 29.1091 9.66479 28.7422 9.58423 28.3428C9.50367 27.9435 9.54502 27.5295 9.70304 27.1533C9.86105 26.7771 10.1286 26.4556 10.472 26.2293C10.8153 26.0031 11.219 25.8824 11.6319 25.8824C12.1856 25.8824 12.7166 26.0993 13.1082 26.4854C13.4997 26.8715 13.7197 27.3951 13.7197 27.9412ZM27.1411 25.8824C26.7281 25.8824 26.3245 26.0031 25.9812 26.2293C25.6378 26.4556 25.3702 26.7771 25.2122 27.1533C25.0542 27.5295 25.0129 27.9435 25.0934 28.3428C25.174 28.7422 25.3728 29.1091 25.6648 29.397C25.9568 29.6849 26.3288 29.881 26.7338 29.9604C27.1388 30.0399 27.5585 29.9991 27.94 29.8433C28.3215 29.6875 28.6476 29.4236 28.877 29.085C29.1064 28.7464 29.2288 28.3484 29.2288 27.9412C29.2288 27.3951 29.0089 26.8715 28.6174 26.4854C28.2258 26.0993 27.6948 25.8824 27.1411 25.8824ZM33.9606 7.02353L29.7075 20.6574C29.5037 21.3193 29.089 21.899 28.525 22.3103C27.9609 22.7217 27.2774 22.9429 26.5759 22.9412H12.2388C11.5255 22.9386 10.8322 22.7078 10.2632 22.2835C9.69425 21.8593 9.2802 21.2644 9.08331 20.5882L3.69089 1.97794C3.67302 1.91633 3.63523 1.86216 3.58328 1.82367C3.53133 1.78518 3.46805 1.76448 3.40307 1.76471H0.894761C0.657455 1.76471 0.429869 1.67174 0.262069 1.50627C0.0942691 1.3408 0 1.11637 0 0.882353C0 0.648338 0.0942691 0.423908 0.262069 0.258435C0.429869 0.0929618 0.657455 0 0.894761 0H3.40307C3.85635 0.0012053 4.29702 0.147338 4.65893 0.416469C5.02085 0.6856 5.2845 1.06321 5.41032 1.49265L6.68237 5.88235H33.1061C33.246 5.88249 33.3839 5.91497 33.5088 5.97718C33.6336 6.0394 33.7419 6.12961 33.825 6.24058C33.9081 6.35155 33.9637 6.48018 33.9872 6.61616C34.0108 6.75213 34.0017 6.89165 33.9606 7.02353ZM31.8952 7.64706H7.19388L10.8042 20.1103C10.8934 20.4176 11.0816 20.6879 11.3405 20.8803C11.5993 21.0727 11.9147 21.1766 12.2388 21.1765H26.5714C26.8904 21.1765 27.201 21.0757 27.4576 20.8889C27.7142 20.702 27.9033 20.4389 27.9971 20.1382L31.8952 7.64706Z" fill="black"/>
</svg>
