<svg width="500" height="1000" viewBox="0 0 500 1000" fill="none" xmlns="http://www.w3.org/2000/svg">
<g filter="url(#filter0_f_374_758)">
<path d="M183.137 17.6992C176.101 22.3625 170.192 27.9535 165.118 34.2867M183.137 17.6992C180.084 5.41387 169.262 -9.7231 180.466 -13.6873C186.48 -15.8149 186.907 -6.265 185.678 3.80963M183.137 17.6992C189.504 25.6882 203.853 39.4212 210.315 30.441C214.658 24.4059 206.762 20.5054 197.74 18.2912M183.137 17.6992C183.743 17.2227 184.372 16.722 185.017 16.2024M183.137 17.6992C184.073 13.821 185.075 8.75215 185.678 3.80963M58.4608 446.313C114.526 438.03 184.295 420.551 132.674 415.41C91.3761 411.296 65.9911 434.298 58.4608 446.313ZM58.4608 446.313C44.4773 434.79 20.3407 410.917 35.6627 407.606C50.9847 404.295 57.2456 432.031 58.4608 446.313ZM58.4608 446.313C55.7866 448.046 48.9861 452.137 43.1772 454.638C35.9162 457.765 22.6662 455.38 31.9944 447.059C35.2698 444.137 39.6681 443.15 44.0556 443.176M58.4608 446.313C58.1397 445.838 60.3989 445.847 72.0044 449.677C86.5113 454.464 78.4856 462.674 64.4831 457.342C63.2154 456.845 60.2361 453.944 58.4608 446.313ZM58.4608 446.313C60.1149 435.679 61.8136 425.162 63.5521 414.767M58.4608 446.313C61.2319 440.369 66.2362 428.703 69.8644 417.757M58.4608 446.313C61.1187 437.802 64.8213 426.189 67.9317 416.927M58.4608 446.313C54.1863 445.58 49.2568 444.535 44.0556 443.176M67.2142 393.38C30.5758 347.822 47.4816 317.279 48.1599 325.25C48.5907 330.314 54.4168 335.908 59.7192 352.357M67.2142 393.38C98.5528 398.575 155.052 404.774 130.342 388.009C117.877 379.552 104.66 378.76 93.2407 381.179M67.2142 393.38C70.9296 384.533 82.5832 364.573 99.4755 355.508M67.2142 393.38C66.5906 388.582 65.922 377.532 68.2371 371.715C71.131 364.444 72.5832 363.818 74.2898 366.182C75.9963 368.546 74.7985 372.161 73.6854 376.771C72.7949 380.46 68.6823 389.575 67.2142 393.38ZM67.2142 393.38C69.4832 380.43 71.8107 367.683 74.1869 355.151M67.2142 393.38C72.54 389.031 82.0222 383.556 93.2407 381.179M67.2142 393.38C66.354 383.27 65.11 374.803 63.6633 367.661M67.2142 393.38C66.6949 396.344 66.1787 399.318 65.6656 402.303M63.5521 414.767C61.2933 413.956 34.5605 394.653 37.2849 385.389C39.4644 377.977 55.7045 401.886 63.5521 414.767ZM63.5521 414.767C63.808 413.24 60.6575 406.483 60.8589 402.953C61.0604 399.423 62.3854 397.303 63.88 397.176C64.7261 397.104 65.6645 398.632 65.6656 402.303M63.5521 414.767C64.6505 415.367 66.2005 416.15 67.9317 416.927M63.5521 414.767C65.3214 413.493 67.4004 412.664 69.5381 412.203M63.5521 414.767C65.1166 409.191 65.6664 405.117 65.6656 402.303M69.8644 417.757C73.1067 419.085 76.6121 420.18 78.868 419.988C83.85 419.564 85.7156 417.9 82.9279 414.624C81.182 412.573 76.5018 411.362 71.6953 411.861M69.8644 417.757C69.205 417.487 68.5565 417.207 67.9317 416.927M69.5381 412.203C72.6745 403.117 74.7346 398.075 73.5259 404.384C73.0851 406.686 72.4554 409.213 71.6953 411.861M69.5381 412.203C70.2537 412.049 70.9759 411.936 71.6953 411.861M30.9547 411.25C15.0172 394.212 -1.22089 383.346 -6.66285 399.666C-14.1135 422.009 18.302 436.445 44.0556 443.176M74.1869 355.151C74.413 353.959 74.6394 352.769 74.8663 351.581C75.0289 350.729 75.1917 349.879 75.3547 349.03M74.1869 355.151L87.2963 348.014C94.5516 344.064 104.263 341.288 112.186 338.772M74.1869 355.151C83.8506 356.013 101.972 356.72 108.727 353.981M74.1869 355.151C72.3109 359.779 68.2716 366.69 63.6633 367.661M74.1869 355.151C73.6504 354.318 73.1194 353.499 72.5941 352.693M75.3547 349.03C74.8982 337.826 72.3596 326.029 68.874 314.957M75.3547 349.03C77.4781 338.311 81.3871 314.294 80.0361 303.971C78.3474 291.068 75.3937 284.796 68.4642 287.894C61.5347 290.993 66.7503 308.614 68.874 314.957M75.3547 349.03C76.7067 341.986 78.0739 335.011 79.4543 328.107M75.3547 349.03C79.7569 341.733 87.8432 330.617 96.7162 323.079M68.874 314.957C60.5143 288.401 46.7074 266.013 43.1154 265.964C38.0256 265.896 30.9696 263.987 30.52 284.097C30.0779 303.873 41.6089 305.161 72.5941 352.693M79.4543 328.107C80.1895 326.423 83.5419 322.763 91.0704 321.599C98.5988 320.435 97.9711 322.101 96.7162 323.079M79.4543 328.107C81.7059 316.847 83.9928 305.777 86.3075 294.907M96.7162 323.079C103.494 317.321 110.731 313.651 117.136 315.367C135.622 320.317 129.739 327.843 125.637 332.708C123.805 334.881 118.578 336.742 112.186 338.772M86.3075 294.907C122.2 300.049 193.43 306.165 191.209 289.493C189.342 275.479 172.317 270.017 154.273 270.682M86.3075 294.907C86.9833 294.549 87.7826 294.133 88.6937 293.667C106.006 290.721 131.743 286.524 140.87 281.733C146.023 279.028 151.027 274.576 154.273 270.682M86.3075 294.907C86.5619 293.712 86.8167 292.519 87.0718 291.329M86.3075 294.907C80.491 288.571 75.4863 282.629 71.2266 277.104M86.3075 294.907C84.1573 293.778 82.8893 288.309 82.0447 281.645M87.0718 291.329C90.3726 290.546 122.532 266.734 132.613 261.36C142.693 255.986 157.152 260.777 157.904 263.724C158.232 265.007 156.775 267.679 154.273 270.682M87.0718 291.329C87.2181 290.647 87.3644 289.965 87.5109 289.284M87.0718 291.329C87.3843 289.878 87.4957 287.151 87.7457 283.967M80.4403 262.788C80.0928 258.025 78.5802 252.724 78.076 251.448C76.1575 246.593 66.7346 224.312 56.0282 227.732C50.7899 229.405 49.2313 236.051 53.2595 247.036M80.4403 262.788C80.855 268.473 81.2732 275.557 82.0447 281.645M80.4403 262.788C81.9489 265.022 85.3955 272.246 87.7457 283.967M53.2595 247.036C50.1611 247.3 44.6345 249.376 47.3149 255.571C49.9953 261.766 64.3729 272.508 71.2266 277.104M53.2595 247.036C56.146 254.908 61.9011 265.008 71.2266 277.104M82.0447 281.645L87.5109 289.284M87.5109 289.284C87.7313 288.26 87.9519 287.238 88.1727 286.217C91.1225 272.586 94.1134 259.278 97.13 246.314M87.5109 289.284C92.5157 286.851 109.588 273.84 110.787 270.242C111.987 266.645 108.699 263.395 97.7388 264.327C89.8892 264.995 88.3765 275.934 87.7457 283.967M93.2407 381.179C108.718 370.097 113.486 356.969 108.727 353.981M108.727 353.981C110.023 353.455 110.901 352.803 111.22 352C112.791 348.053 113.793 342.141 112.186 338.772M59.7192 352.357C57.3933 351.554 55.7866 350.695 55.4115 350.727C54.4151 350.812 49.0939 355.279 57.6373 365.09C59.6674 367.421 61.7162 368.072 63.6633 367.661M59.7192 352.357C63.0413 353.504 67.8305 354.536 72.5941 352.693M97.13 246.314C122.465 250.849 174.243 256.413 178.67 242.387C182.14 231.394 171.219 225.176 158.386 223.539M97.13 246.314C83.3892 240.625 54.8609 226.727 50.6737 216.646C45.4397 204.044 50.8217 194.554 55.5946 193.646C60.3676 192.738 65.7681 189.769 80.1349 202.598C84.6675 206.645 88.2811 212.06 91.0786 217.642M97.13 246.314C102.798 241.53 107.381 237.183 111.07 233.235M97.13 246.314C94.708 239.329 91.7638 228.067 91.0786 217.642M116.347 227.116C129.872 209.907 122.845 197.96 122.078 196.52C121.079 194.646 117.02 190.423 110.946 189.89M116.347 227.116C117.176 226.042 144.189 208.689 152.542 212.494C159.224 215.539 159.222 221.126 158.386 223.539M116.347 227.116C114.834 229.041 113.085 231.079 111.07 233.235M158.386 223.539C150.752 222.565 142.441 223.211 136.08 225.437C127.439 228.46 118.341 230.363 111.07 233.235M91.2508 207.673C89.8563 203.276 84.1083 197.743 87.6914 193.424C92.1702 188.025 95.1703 195.749 93.8072 198.925M91.2508 207.673C91.655 204.356 92.465 201.362 93.8072 198.925M91.2508 207.673C90.8729 210.776 90.8499 214.162 91.0786 217.642M93.8072 198.925C94.6226 197.445 95.6344 196.17 96.8709 195.152C102.221 190.749 107.007 189.544 110.946 189.89M112.794 182.757C106.865 179.582 94.8786 171.736 94.3699 165.758C93.734 158.285 96.5113 155.54 100.953 154.66C103.15 154.225 106.214 161.377 108.816 169.183M112.794 182.757C114.372 182.623 151.302 192.026 156.602 183.546C161.902 175.066 153.338 168.77 139.685 173.444C128.762 177.183 117.207 181.211 112.794 182.757ZM112.794 182.757C116.804 172.547 125.581 152.765 128.608 155.318C132.392 158.508 114.704 182.595 112.794 182.757ZM112.794 182.757C114.015 178.077 115.235 173.456 116.454 168.897M112.794 182.757C111.853 179.07 110.422 174.002 108.816 169.183M112.794 182.757C112.178 185.119 111.562 187.497 110.946 189.89M116.454 168.897C117.276 165.816 113.672 162.61 109.941 165.939C109.172 166.625 108.843 167.776 108.816 169.183M116.454 168.897C119.146 158.832 121.832 149.065 124.501 139.609M124.501 139.609C113.328 130.524 93.859 109.499 105.368 98.082C117.3 86.2449 120.939 103.078 122.39 115.702M124.501 139.609C125.081 137.553 124.035 134.129 123.06 122.671C122.894 120.716 122.688 118.298 122.39 115.702M124.501 139.609C135.364 144.372 156.327 144.93 167.606 135.942C181.704 124.706 179.075 117.403 169.154 118.749M124.501 139.609C141.87 142.547 151.377 129.763 156.041 123.879M124.501 139.609C127.148 130.34 124.553 118.559 131.571 115.153M169.154 118.749C166.771 119.072 159.718 122.397 156.041 123.879M169.154 118.749C169.828 116.851 170.25 113.945 165.571 112.028C159.813 109.669 152.684 112.828 149.213 115.735M138.668 114.317C140.693 108.625 142.408 96.9376 133.072 95.7248C123.735 94.5119 122.06 108.538 122.39 115.702M138.668 114.317C142.538 114.73 146.106 115.181 149.213 115.735M138.668 114.317C135.582 113.988 133.289 114.32 131.571 115.153M156.041 123.879C159.73 118.345 158.709 117.429 149.213 115.735M131.571 115.153C134.108 106.584 136.533 98.1239 139.079 89.9224M139.152 89.6875C152.616 92.8909 180.676 97.2944 185.213 89.2809C188.906 82.7575 184.489 80.9678 177.004 81.2653M139.152 89.6875C139.128 89.7658 139.104 89.8441 139.079 89.9224M139.152 89.6875C137.418 87.8279 117.405 88.5271 110.356 70.56C103.308 52.5929 108.852 41.0814 114.258 45.6395C119.664 50.1976 140.74 84.4899 139.079 89.9224M139.152 89.6875C140.125 86.5939 133.942 46.9755 139.666 43.4776C144.245 40.6793 145.573 50.0002 145.665 55.0105C145.61 59.866 144.691 72.1548 141.459 82.4659M139.152 89.6875C139.908 87.2562 140.675 84.8477 141.459 82.4659M139.079 89.9224C142.317 88.5671 151.656 85.3117 163.112 83.1325C168.107 82.1826 172.995 81.4247 177.004 81.2653M139.079 89.9224C139.695 87.9612 143.888 83.5103 148.595 79.3497M177.004 81.2653C178.097 78.3899 179.71 71.7845 177.412 68.367C174.539 64.0952 164.83 67.9322 158.152 72.0131C155.408 73.6894 151.877 76.449 148.595 79.3497M141.459 82.4659C144.377 77.3669 150.412 67.1518 151.209 67.0839C152.205 66.9992 154.643 60.2682 161.374 62.7063C168.105 65.1445 153.17 72.437 148.595 79.3497M141.459 82.4659C145.573 69.9645 150.155 58.1998 156.086 47.7337M156.086 47.7337C150.16 37.0648 139.051 24.4612 147.797 15.1864C152.547 10.1482 155.044 20.001 156.214 31.0298M156.086 47.7337C156.414 47.1552 156.746 46.5806 157.082 46.0102M156.086 47.7337C164.838 52.2972 183.026 58.8569 185.765 48.5877C186.922 44.2492 183.892 42.5061 179.2 42.1976M157.082 46.0102C157.292 45.6532 157.504 45.2979 157.718 44.9442M157.082 46.0102C157.024 41.7198 156.767 36.2434 156.214 31.0298M157.082 46.0102C163.263 44.0352 172.785 41.776 179.2 42.1976M157.718 44.9442C158.333 43.9262 158.962 42.9215 159.607 41.9308M157.718 44.9442C159.926 44.6972 167.76 41.3972 174.83 38.028M159.607 41.9308C161.331 39.2795 163.162 36.728 165.118 34.2867M159.607 41.9308C161.944 40.4128 166.91 37.6191 173.07 35.0341M165.118 34.2867C163.601 29.8995 166.639 14.0851 160.506 17.1159C155.6 19.5405 155.601 27.4021 156.214 31.0298M165.118 34.2867C168.594 33.9909 171.868 34.6617 173.07 35.0341M173.07 35.0341C176.517 33.5876 180.338 32.2064 184.281 31.1507C192.079 29.0631 184.112 33.6052 174.83 38.028M174.83 38.028C176.232 38.779 179.069 40.6643 179.2 42.1976M185.017 16.2024C188.665 16.5318 193.337 17.2107 197.74 18.2912M185.017 16.2024C186.805 14.7599 188.71 13.1712 190.57 11.5469M197.74 18.2912C200.307 18.9788 220.993 14.3935 209.987 8.89121M209.987 8.89121C201.182 4.48938 193.374 8.82754 190.57 11.5469M209.987 8.89121C210.504 0.81828 203.472 1.12817 199.891 2.29224M190.57 11.5469C194.274 8.31339 197.803 4.93834 199.891 2.29224M199.891 2.29224C202.92 -1.54675 202.917 -3.85143 196.016 -1.96342C191.088 -0.615077 187.801 1.46012 185.678 3.80963" stroke="#68368D" stroke-opacity="0.6"/>
<path d="M31.6343 1003.09C26.9826 907.14 2.0955 709.088 -37.641 660.732C-61.1512 632.122 -89.3667 548.212 -89.7596 584.878C-90.1524 621.543 -84.8322 672.275 -72.3672 700.821C-59.9021 729.367 -36.7306 730.406 -9.01366 837.943C13.1599 923.973 19.4162 989.244 19.7727 1011.13L31.6343 1003.09ZM31.6343 1003.09C18.0474 807.068 32.387 616.608 57.4159 453.084" stroke="#85B430" stroke-opacity="0.6"/>
</g>
<g filter="url(#filter1_f_374_758)">
<path d="M292.377 491.544C296.7 493.468 300.488 496.009 303.882 499.038M292.377 491.544C292.921 484.468 297.496 475.092 290.933 473.943C287.41 473.327 288.062 478.646 289.679 484.102M292.377 491.544C289.6 496.554 282.945 505.481 278.536 501.118C275.574 498.185 279.576 495.294 284.358 493.23M292.377 491.544C291.997 491.337 291.603 491.119 291.198 490.892M292.377 491.544C291.498 489.487 290.473 486.778 289.679 484.102M401.189 716.91C369.422 717.547 329.222 714.376 357.284 706.73C379.733 700.613 395.908 710.968 401.189 716.91ZM401.189 716.91C407.848 709.238 418.971 693.793 410.192 693.389C401.413 692.984 400.532 708.901 401.189 716.91ZM401.189 716.91C402.829 717.619 406.969 719.248 410.414 720.09C414.719 721.144 421.823 718.592 415.891 714.86C413.808 713.549 411.285 713.413 408.862 713.835M401.189 716.91C401.323 716.617 400.074 716.832 394.014 720.03C386.439 724.026 391.641 727.818 398.886 723.568C399.541 723.175 400.918 721.294 401.189 716.91ZM401.189 716.91C399.285 711.185 397.367 705.528 395.439 699.943M401.189 716.91C399.104 713.881 395.252 707.897 392.227 702.183M401.189 716.91C398.928 712.452 395.8 706.376 393.219 701.544M401.189 716.91C403.484 716.107 406.112 715.07 408.862 713.835M391.424 688.459C407.441 659.863 395.252 644.549 395.619 649.019C395.852 651.859 393.152 655.494 391.751 665.082M391.424 688.459C374.582 694.248 343.922 702.932 356.023 691.364C362.127 685.528 369.362 683.861 375.9 684.136M391.424 688.459C388.547 683.914 380.247 673.963 370.064 670.523M391.424 688.459C391.323 685.749 390.664 679.577 388.843 676.577C386.566 672.826 385.705 672.615 384.982 674.081C384.258 675.547 385.257 677.433 386.301 679.879C387.137 681.836 390.259 686.492 391.424 688.459ZM391.424 688.459C388.965 681.511 386.492 674.68 384.012 667.973M391.424 688.459C388.075 686.55 382.323 684.406 375.9 684.136M391.424 688.459C390.959 682.79 390.859 677.993 390.994 673.91M391.424 688.459C391.987 690.05 392.549 691.646 393.111 693.249M395.439 699.943C396.612 699.284 409.596 686.125 407.228 681.256C405.333 677.361 398.579 692.091 395.439 699.943ZM395.439 699.943C395.155 699.122 396.269 695.093 395.829 693.161C395.389 691.228 394.459 690.179 393.621 690.248C393.146 690.287 392.77 691.219 393.111 693.249M395.439 699.943C394.888 700.377 394.103 700.954 393.219 701.544M395.439 699.943C394.342 699.403 393.116 699.138 391.891 699.082M395.439 699.943C394.055 697.005 393.372 694.805 393.111 693.249M392.227 702.183C390.558 703.219 388.722 704.15 387.457 704.254C384.663 704.483 383.477 703.737 384.713 701.667C385.488 700.37 387.963 699.265 390.666 699.094M392.227 702.183C392.567 701.972 392.899 701.758 393.219 701.544M391.891 699.082C389.311 694.35 387.703 691.755 388.959 695.131C389.417 696.362 390 697.7 390.666 699.094M391.891 699.082C391.481 699.064 391.071 699.068 390.666 699.094M413.134 694.965C420.36 684.062 428.326 676.544 432.853 685.06C439.052 696.72 422.474 707.717 408.862 713.835M384.012 667.973C383.776 667.335 383.54 666.698 383.304 666.062C383.135 665.606 382.966 665.151 382.797 664.697M384.012 667.973L376.1 665.247C371.721 663.738 366.094 663.107 361.48 662.453M384.012 667.973C378.749 669.348 368.797 671.426 364.807 670.54M384.012 667.973C385.48 670.357 388.356 673.802 390.994 673.91M384.012 667.973C384.231 667.462 384.448 666.96 384.664 666.466M382.797 664.697C382.007 658.46 382.312 651.702 383.209 645.256M382.797 664.697C380.625 658.969 376.229 646.054 376.016 640.221C375.749 632.93 376.798 629.188 380.918 630.256C385.037 631.324 383.793 641.552 383.209 645.256M382.797 664.697C381.394 660.928 379.989 657.199 378.583 653.511M382.797 664.697C379.684 661.072 374.179 655.679 368.572 652.338M383.209 645.256C385.36 629.796 390.91 616.134 392.891 615.773C395.699 615.261 399.422 613.549 401.542 624.626C403.627 635.518 397.372 637.304 384.664 666.466M378.583 653.511C378.02 652.648 375.826 650.937 371.556 650.994C367.285 651.051 367.787 651.913 368.572 652.338M378.583 653.511C376.291 647.495 373.996 641.588 371.705 635.793M368.572 652.338C364.289 649.785 359.946 648.429 356.565 649.974C346.805 654.431 350.758 658.044 353.479 660.352C354.694 661.383 357.757 661.926 361.48 662.453M371.705 635.793C352.34 641.976 313.528 651.986 313.205 642.562C312.933 634.64 321.837 630.036 331.875 628.724M371.705 635.793C371.298 635.658 370.818 635.503 370.27 635.33C360.425 635.312 345.805 635.387 340.314 633.587C337.213 632.571 334.032 630.575 331.875 628.724M371.705 635.793C371.453 635.156 371.201 634.521 370.95 633.886M371.705 635.793C374.331 631.749 376.545 627.999 378.386 624.547M371.705 635.793C372.789 634.969 372.981 631.828 372.828 628.065M370.95 633.886C369.052 633.761 349.056 623.588 342.983 621.555C336.909 619.522 329.362 623.517 329.22 625.216C329.158 625.956 330.212 627.297 331.875 628.724M370.95 633.886C370.805 633.523 370.661 633.16 370.517 632.797M370.95 633.886C370.642 633.113 370.326 631.616 369.892 629.879M371.96 617.49C371.709 614.824 372.052 611.753 372.212 611C372.821 608.138 375.957 594.942 382.195 595.837C385.247 596.275 386.727 599.804 385.522 606.252M371.96 617.49C372.26 620.672 372.688 624.627 372.828 628.065M371.96 617.49C371.334 618.865 370.101 623.18 369.892 629.879M385.522 606.252C387.259 606.109 390.508 606.743 389.603 610.417C388.697 614.092 381.748 621.368 378.386 624.547M385.522 606.252C384.658 610.873 382.416 616.992 378.386 624.547M372.828 628.065L370.517 632.797M370.517 632.797C370.299 632.251 370.082 631.706 369.865 631.163C366.966 623.901 364.074 616.822 361.2 609.935M370.517 632.797C367.523 631.917 356.874 626.312 355.876 624.435C354.878 622.558 356.393 620.455 362.54 619.951C366.942 619.589 368.796 625.496 369.892 629.879M375.9 684.136C366.312 679.449 362.454 672.634 364.807 670.54M364.807 670.54C364.041 670.37 363.495 670.091 363.244 669.677C362.008 667.64 360.905 664.465 361.48 662.453M391.751 665.082C392.962 664.421 393.77 663.797 393.981 663.78C394.539 663.734 397.897 665.708 394.087 671.928C393.181 673.405 392.109 673.956 390.994 673.91M391.751 665.082C390.021 666.025 387.469 667.041 384.664 666.466M361.2 609.935C347.615 614.8 319.506 622.694 315.754 615.351C312.813 609.596 318.272 605.143 325.214 603.043M361.2 609.935C368.268 605.511 382.747 595.173 384.124 589.21C385.845 581.756 381.986 577.009 379.263 576.952C376.539 576.894 373.277 575.755 366.528 584.184C364.399 586.844 362.905 590.174 361.878 593.52M361.2 609.935C357.621 607.817 354.683 605.841 352.276 604.001M361.2 609.935C361.889 605.848 362.469 599.347 361.878 593.52M348.789 601.109C339.71 592.854 342.483 585.594 342.774 584.727C343.152 583.598 345.002 580.886 348.311 580.025M348.789 601.109C348.231 600.592 331.682 593.512 327.418 596.393C324.007 598.698 324.528 601.787 325.214 603.043M348.789 601.109C349.805 602.033 350.961 602.996 352.276 604.001M325.214 603.043C329.344 601.794 333.999 601.378 337.723 602.017C342.782 602.884 347.989 603.09 352.276 604.001M360.855 588.025C361.217 585.464 363.88 581.87 361.497 579.815C358.518 577.247 357.578 581.797 358.627 583.426M360.855 588.025C360.323 586.228 359.596 584.649 358.627 583.426M360.855 588.025C361.353 589.705 361.68 591.575 361.878 593.52M358.627 583.426C358.039 582.683 357.361 582.073 356.583 581.625C353.215 579.688 350.457 579.468 348.311 580.025M346.626 576.254C349.609 573.947 355.505 568.494 355.23 565.141C354.886 560.951 353.095 559.691 350.558 559.618C349.303 559.582 348.274 563.821 347.562 568.379M346.626 576.254C345.741 576.327 326.199 584.962 322.479 580.767C318.76 576.572 322.909 572.293 330.892 573.607C337.279 574.658 344.042 575.81 346.626 576.254ZM346.626 576.254C343.459 570.982 336.766 560.862 335.329 562.555C333.534 564.671 345.555 576.342 346.626 576.254ZM346.626 576.254C345.515 573.78 344.411 571.339 343.312 568.932M346.626 576.254C346.803 574.128 347.122 571.193 347.562 568.379M346.626 576.254C347.186 577.503 347.748 578.76 348.311 580.025M343.312 568.932C342.572 567.305 344.265 565.197 346.638 566.69C347.127 566.998 347.416 567.604 347.562 568.379M343.312 568.932C340.888 563.618 338.494 558.468 336.138 553.488M336.138 553.488C341.47 547.426 350.278 533.99 342.852 528.749C335.154 523.315 334.708 532.96 335.081 540.074M336.138 553.488C335.626 552.405 335.886 550.415 335.359 543.989C335.269 542.893 335.158 541.537 335.081 540.074M336.138 553.488C330.576 557.132 319.038 559.392 311.966 555.472C303.126 550.572 303.9 546.289 309.51 546.11M336.138 553.488C326.809 556.729 320.363 550.546 317.237 547.726M336.138 553.488C333.813 548.61 334.151 541.855 329.954 540.625M309.51 546.11C310.858 546.067 315.066 547.249 317.237 547.726M309.51 546.11C308.961 545.124 308.457 543.556 310.866 542.061C313.83 540.221 318.065 541.304 320.254 542.588M325.952 540.823C324.303 537.865 322.267 531.563 327.316 530.023C332.365 528.484 334.597 536.083 335.081 540.074M325.952 540.823C323.851 541.412 321.92 541.993 320.254 542.588M325.952 540.823C327.628 540.354 328.927 540.324 329.954 540.625M317.237 547.726C314.683 545.01 315.162 544.409 320.254 542.588M329.954 540.625C327.754 536.124 325.626 531.672 323.455 527.375M323.393 527.252C316.248 530.275 301.144 535.321 297.89 531.313C295.241 528.05 297.516 526.649 301.682 526.117M323.393 527.252C323.414 527.293 323.434 527.334 323.455 527.375M323.393 527.252C324.179 526.062 335.308 524.586 337.533 513.997C339.758 503.408 335.622 497.559 333.058 500.582C330.493 503.605 322.032 524.526 323.455 527.375M323.393 527.252C322.567 525.632 322.299 503.153 318.809 501.751C316.017 500.63 316.15 505.907 316.565 508.686C317.048 511.365 318.699 518.074 321.446 523.474M323.393 527.252C322.749 525.978 322.101 524.717 321.446 523.474M323.455 527.375C321.539 526.927 316.073 525.996 309.536 525.857C306.687 525.797 303.913 525.832 301.682 526.117M323.455 527.375C322.932 526.348 320.2 524.277 317.21 522.415M301.682 526.117C300.81 524.629 299.304 521.127 300.256 519.024C301.447 516.395 307.172 517.613 311.244 519.248C312.917 519.919 315.126 521.116 317.21 522.415M321.446 523.474C319.358 520.926 315.071 515.84 314.624 515.877C314.065 515.922 312.091 512.428 308.596 514.402C305.102 516.377 314.038 519.019 317.21 522.415M321.446 523.474C318.008 516.945 314.38 510.867 310.127 505.632M310.127 505.632C312.41 499.182 317.379 491.181 311.681 486.867C308.586 484.523 308.122 490.203 308.502 496.409M310.127 505.632C309.892 505.343 309.655 505.056 309.416 504.772M310.127 505.632C305.713 508.97 296.268 514.289 293.798 508.866C292.754 506.575 294.267 505.33 296.833 504.722M309.416 504.772C309.267 504.594 309.116 504.418 308.965 504.242M309.416 504.772C309.049 502.395 308.681 499.343 308.502 496.409M309.416 504.772C305.815 504.255 300.34 503.892 296.833 504.722M308.965 504.242C308.53 503.736 308.089 503.239 307.641 502.752M308.965 504.242C307.721 504.311 303.083 503.215 298.861 502.011M307.641 502.752C306.441 501.446 305.191 500.206 303.882 499.038M307.641 502.752C306.207 502.13 303.201 501.048 299.555 500.192M303.882 499.038C304.313 496.472 301.161 488.011 304.834 489.116C307.772 490 308.503 494.346 308.502 496.409M303.882 499.038C301.933 499.198 300.185 499.874 299.555 500.192M299.555 500.192C297.515 499.713 295.274 499.304 292.996 499.088C288.49 498.659 293.318 500.429 298.861 502.011M298.861 502.011C298.155 502.556 296.762 503.863 296.833 504.722M291.198 490.892C289.212 491.413 286.692 492.223 284.358 493.23M291.198 490.892C290.075 490.261 288.874 489.56 287.694 488.835M284.358 493.23C283.003 493.85 271.14 493.239 276.713 489.173M276.713 489.173C281.171 485.92 285.891 487.592 287.694 488.835M276.713 489.173C275.675 484.758 279.592 484.275 281.68 484.585M287.694 488.835C285.346 487.392 283.081 485.854 281.68 484.585M281.68 484.585C279.648 482.745 279.435 481.47 283.426 481.872C286.277 482.159 288.287 483 289.679 484.102" stroke="#68368D" stroke-opacity="0.6"/>
<path d="M467.83 1022.24C461.473 968.757 456.803 856.945 474.273 826.513C484.609 808.508 492.4 759.491 496.029 779.726C499.658 799.96 501.437 828.503 497.202 845.445C492.967 862.387 480.253 865.118 474.935 927.151C470.682 976.777 473.296 1013.45 475.135 1025.58L467.83 1022.24ZM467.83 1022.24C457.101 912.599 431.451 808.634 402.397 720.556" stroke="#85B430" stroke-opacity="0.6"/>
</g>
<defs>
<filter id="filter0_f_374_758" x="-93.2798" y="-17.4868" width="309.969" height="1032.55" filterUnits="userSpaceOnUse" color-interpolation-filters="sRGB">
<feFlood flood-opacity="0" result="BackgroundImageFix"/>
<feBlend mode="normal" in="SourceGraphic" in2="BackgroundImageFix" result="shape"/>
<feGaussianBlur stdDeviation="1.5" result="effect1_foregroundBlur_374_758"/>
</filter>
<filter id="filter1_f_374_758" x="271.733" y="470.395" width="231.433" height="559.021" filterUnits="userSpaceOnUse" color-interpolation-filters="sRGB">
<feFlood flood-opacity="0" result="BackgroundImageFix"/>
<feBlend mode="normal" in="SourceGraphic" in2="BackgroundImageFix" result="shape"/>
<feGaussianBlur stdDeviation="1.5" result="effect1_foregroundBlur_374_758"/>
</filter>
</defs>
</svg>
