<svg width="1600" height="4739" viewBox="0 0 1600 4739" fill="none" xmlns="http://www.w3.org/2000/svg">
<g clip-path="url(#clip0_55_3)">
<rect width="1600" height="4739" fill="#F9F9F2"/>
<g filter="url(#filter0_f_55_3)">
<path d="M170 -8C147 17.5 20.8 166.9 34 212.5C47.2 258.1 153.167 231.5 204.5 212.5C240.667 201 351.9 184.9 507.5 212.5C663.1 240.1 746 354.667 768 408.5C802.833 479.5 830 632 660 674C447.5 726.5 473 756.5 507.5 786.5C535.588 810.924 588.531 927.48 519.013 959.44M-59 719C-14 721.5 76 712.7 76 657.5C76 602.3 8 516.5 -26 480.5M1679.5 279C1665.67 326 1624.2 411.8 1569 379C1500 338 1410 412 1489.5 514.5C1553.1 596.5 1654.67 629 1697.5 635M-59 1335L34 1286C170 1232.5 18.1 1005.6 86.5 966C172 916.5 287 946.5 450.5 966C480.889 969.624 503.142 966.737 519.013 959.44M1682 1000.5C1682 1012.5 1637.5 1111.5 1506.5 1156C1375.5 1200.5 1355.5 1323.5 1365.5 1368.5C1375.5 1413.5 1444.5 1606.5 1405 1636C1365.5 1665.5 1427.5 1749 1467 1692.5C1506.5 1636 1388 1497.5 1553.5 1403.5C1685.9 1328.3 1694.33 1233.5 1682 1195.5M519.013 959.44C478.175 989.46 409.8 1078.7 463 1195.5C529.5 1341.5 601.5 1326 554.5 1460C507.5 1594 804.5 1483 831.5 1594C858.5 1705 1031.5 1962 712.5 1920C393.5 1878 349 1656 406 1636C463 1616 470.5 1514.5 406 1527C341.5 1539.5 243 1556.5 225.5 1658C208 1759.5 409 1967.5 337 2036.5C265 2105.5 10.5 2209.5 144 2573C277.5 2936.5 626 2924 683 2842.5C740 2761 972.5 2555.5 1096 2615C1219.5 2674.5 1235 2717 1296.5 2736.5M1296.5 2736.5C1358 2756 1420 2699 1425 2664.5C1430 2630 1450 2551 1296.5 2506.5C1143 2462 1118 2390.5 1187.5 2368C1257 2345.5 1323.5 2264 1227 2217C1130.5 2170 930 2177.5 900.5 2316C871 2454.5 739.5 2573 623.5 2481.5C507.5 2390 564 2206.5 623.5 2199.5C671.1 2193.9 752.333 2151.17 787 2130.5M1296.5 2736.5C1328.67 2838 1352.9 3043.4 1192.5 3053C992 3065 881 3115 834 3246C787 3377 831 3485.5 905.5 3579.5C980 3673.5 834 3775.5 747.5 3698.5C661 3621.5 836.5 3589.5 683 3456C560.2 3349.2 335.167 3452.83 238 3518C188.5 3570.83 73.2 3727.4 8 3931M-69 2640C-16.8333 2686.83 91.9 2813.2 109.5 2944C127.1 3074.8 -38.1667 3132.17 -123 3144.5M1524 4062C1435 4054.5 1400 3834 1405 3802C1410 3770 1415 3619 1459.5 3537.5C1504 3456 1434.5 3394.5 1365.5 3416.5C1296.5 3438.5 1226.5 3508 1217 3552.5C1207.5 3597 1197.5 3644.5 1237 3745.5C1276.5 3846.5 1232.5 4255 980 4198C727.5 4141 799 4269.5 683 4368.5C567 4467.5 607 4423.5 475.5 4386C344 4348.5 233 4448 188.5 4576.5C144 4705 540 4712.5 611.5 4695C683 4677.5 802 4548.5 918 4534C1010.8 4522.4 1210.67 4610.17 1299 4655.5C1383.17 4722.17 1563.3 4882.7 1610.5 4991.5" stroke="#8753C8" stroke-width="25"/>
</g>
<g filter="url(#filter1_f_55_3)">
<path d="M697.5 -40C725.9 -36 783.667 5.66667 809 26C829.333 41.3333 876.6 89.2 903 158C936 244 1047.5 107 1047.5 66.5C1047.5 34.1 1037.17 -36.6667 1032 -68M-36 946.5C16.5 920.5 128.1 857.3 154.5 812.5C180.9 767.7 260 783.5 294.5 751.5C369.167 718.5 508.9 640.3 470.5 591.5C422.5 530.5 273 533 334.5 482.5C396 432 598.5 448 550.5 482.5M1646 878C1656 895.667 1650.2 934.1 1547 946.5C1418 962 1415 833 1270.5 848C1126 863 1053 964.5 1007 969.5C961 974.5 913 818 844.5 848C776 878 695 1000 700 1073.5C705 1147 745 1282 824 1332.5C903 1383 1210 1449 1210 1555.5C1210 1662 1101 2078 1324 2075.5C1547 2073 1478.5 1875.5 1476 1852.5C1473.5 1829.5 1454 1715 1585.5 1735.5C1690.7 1751.9 1771 1875.5 1771 1890.5C1808.33 1973.83 1842.3 2149.4 1679.5 2185C1516.7 2220.6 1498 2323.5 1509 2370.5C1519.83 2397.67 1555.3 2453.5 1610.5 2459.5C1665.7 2465.5 1740.5 2440.33 1771 2427M532 2709C520 2709 317 2667 309.5 2575.5C302 2484 290 2410 374 2271.5C441.2 2160.7 515.667 2103.33 544.5 2088.5M-36 1257.5C3 1292 173.5 1262 171 1371C168.5 1480 47.5 1513.5 37.5 1534.5C27.5 1555.5 -247 1705.5 84.5 1852.5C349.7 1970.1 31.6667 2050.17 -160.5 2075.5M-29 3391.5C-12 3382 89 3105 297 3085C505 3065 653.569 3036.47 707.5 3001C910.5 2867.5 994.5 2912 779.5 3085C681.4 3163.94 562 3139 547 3250.5C532 3362 450.5 3399 364 3367C277.5 3335 185.5 3248.5 119 3320C65.8 3377.2 -1.83333 3617.5 -29 3730.5M1610.5 2941.5C1521.5 3107.5 1467 3112.5 1420 3181.5C1382.4 3236.7 1531.33 3280.17 1610.5 3295M861 3896C792 3948 710 4056.5 628.5 4126C547 4195.5 386.5 4252 280 4220C173.5 4188 119 4124 119 4010C119 3896 216 3817 280 3809.5C344 3802 509.5 3820 569 3881.5M1281.5 4099C1317.83 4096.5 1406.8 4112.3 1472 4195.5C1553.5 4299.5 1534 4475 1425 4470C1316 4465 1296.5 4331.5 1192.5 4331.5C1088.5 4331.5 982 4332 861 4386C740 4440 594 4589 505 4561.5C433.8 4539.5 429 4522.67 435.5 4517" stroke="#C2EF70" stroke-width="15"/>
</g>
<g filter="url(#filter2_d_55_3)">
<path d="M1084.75 314.339C1085.02 313.244 1084.99 310.48 1082.7 308.182C1081.04 306.521 1069.92 301.022 1060.19 295.329C1053.09 291.171 1046.74 286.91 1045.35 283.965C1046.66 287.577 1051.37 291.49 1053.56 292.995C1052.74 292.995 1050.85 292.831 1049.87 292.174C1049.1 291.666 1053.37 295.086 1058.58 298.447C1061.79 300.52 1065.36 302.571 1068.33 303.667C1076.13 306.54 1085.16 309.413 1084.75 314.339Z" fill="#68368D"/>
<path d="M1209.1 305.724C1206.8 308.023 1206.77 310.788 1207.04 311.882C1206.63 306.956 1215.66 304.082 1223.46 301.208C1228.69 299.602 1233.46 296.681 1236.97 294.028C1239.2 292.348 1240.92 290.775 1241.93 289.713C1240.94 290.37 1239.06 290.534 1238.23 290.534C1240.31 289.104 1244.67 285.497 1246.22 282.04C1245.2 283.56 1240.68 286.747 1234.9 290.43C1226.71 295.647 1215.99 301.858 1209.1 305.724Z" fill="#68368D"/>
<path d="M1060.12 295.458C1060.15 295.415 1060.17 295.372 1060.19 295.329M1011.29 397.25C1010.5 397.25 1010.39 399 1003.5 399C1010.07 392.433 1011.43 381.242 1014.57 373.444C1014.57 372.5 1013.5 373.444 1010.5 369.5C1032 356 1041.06 332.962 1058.58 298.447M1011.29 397.25C1008 425 977 481 933.5 532C935 532.5 938.5 532.5 940.5 531.5C934.91 546.927 950.868 589.51 938.5 593.5C942 593.5 945 592 946 591C950.241 597.157 958.512 613.065 962.452 637.364C963.437 634.737 963.683 631.891 963.683 630.796C967.797 640.077 981.208 657.051 1006.86 669.789M1011.29 397.25C1011.97 404.638 1016.05 420.728 1026.88 425.982C1026.88 431.728 1027.18 432.127 1028 435C1030.05 432.948 1029.5 434 1031.81 432.549C1034.68 434.601 1045.35 444.042 1052.74 444.452M1049.52 682.924C1046.41 682.341 1040.88 681.692 1037.96 680.983M1286 403C1289.11 403.001 1289 402.264 1290 401.765C1283.43 395.198 1287.34 386.989 1284.2 379.19C1286 378.5 1285.08 378.552 1290 376.5C1264 364.5 1257.52 332.81 1238.64 297.1C1238.1 296.073 1237.55 295.049 1236.97 294.028M1286 403C1285.75 402.789 1284.4 402.044 1284.2 401.765M1286 403C1285.77 402.75 1284.43 402.004 1284.2 401.765M1286 403C1306.97 425.951 1311.78 494.059 1360.5 544C1355.16 544 1355.5 543.78 1353.96 543.78C1356.16 548.306 1357.39 559.567 1358.61 572.512C1359.93 582.5 1360.07 590.176 1364.5 595.497C1366.55 597.96 1367.19 598.37 1360.87 595.497C1363.02 614.252 1357.5 626 1362.5 628C1360.87 627.349 1356.29 628.334 1355.2 624.639C1340.42 653.371 1333.57 641.492 1327 657.5C1326.02 654.873 1324.83 653.371 1324.83 653.371C1324.83 653.371 1319.95 664.405 1287.48 674.909M1284.2 401.765C1280 404.5 1279 408.5 1278 414.5C1275.13 414.5 1275.17 414.921 1271 414.5C1270.18 418.194 1266.63 432.713 1260.4 436.654C1254.16 440.594 1246.2 443.494 1243 444.452M1255.47 682.924C1258.17 682.401 1260.77 681.868 1263.27 681.326M1156.35 213.98C1160.29 219.562 1160.53 224.996 1160.26 226.912C1168.06 225.27 1179.96 223.833 1177.91 224.859C1173.31 227.158 1173.26 230.743 1173.8 232.247C1177.2 230.919 1184.09 234.314 1192.41 240.867M1192.41 240.867C1199.48 238.131 1215.25 231.509 1218.54 226.912C1219.77 228.143 1216.89 233.069 1218.54 233.069C1220.18 233.069 1225.24 234.437 1227.15 236.352C1228.25 244.18 1228.06 261.304 1218.54 267.18M1192.41 240.867C1200.42 247.176 1209.75 256.413 1218.54 267.18M1218.54 267.18C1224.42 274.384 1230.06 282.273 1234.9 290.43M1110.55 239.636C1113.61 237.299 1117.31 234.609 1118.5 234C1125.74 230.29 1136.87 229.785 1147.95 229.785C1152.87 197.77 1226.74 175.605 1305.54 146.874C1384.33 118.142 1303.15 100.29 1271.96 87.1558C1240.77 74.0215 1234.5 35.6626 1242 20.6626C1247.15 10.357 1268.68 -14.6363 1334.75 11.6326C1387.61 32.6478 1360 50.6626 1345.83 55.1406C1327.5 66.1626 1327.69 78.0937 1334.75 87.1558C1355 113.163 1412.83 115.252 1436.5 115.663C1472.19 115.663 1550.3 91.6974 1580.5 105.828C1589.67 110.081 1612.3 124.243 1629.5 146.874M1110.55 239.636C1108.24 236.489 1102.81 229.867 1099.52 228.554C1099.52 231.509 1097.61 232.795 1096.65 233.069C1091.72 228.964 1080.64 221.166 1075.72 222.807C1069.56 224.859 1068.35 258.517 1079.01 268.368M1110.55 239.636C1103.19 245.25 1090.86 254.863 1079.01 268.368M1079.01 268.368C1072.24 276.089 1065.63 285.082 1060.19 295.329M1084.75 314.339C1085.02 313.244 1084.99 310.48 1082.7 308.182C1081.04 306.521 1069.92 301.022 1060.19 295.329M1084.75 314.339C1085.16 309.413 1076.13 306.54 1068.33 303.667M1084.75 314.339C1085.73 313.025 1085.98 306.677 1085.98 303.667M1084.75 314.339C1082.29 324.326 1056.43 368.108 1056.43 368.108C1056.43 368.108 1041.66 395.198 1041.66 420.646C1041.66 432.549 1056.02 460.46 1089.26 464.564C1089.5 467 1087.55 469.226 1087 469.5C1090.83 470.047 1096.73 471.624 1100.34 468.669C1103.3 469.326 1106.77 469.763 1108.14 469.9M1068.33 303.667C1067.1 311.739 1069.43 326.899 1082.23 322.958M1068.33 303.667C1065.36 302.571 1061.79 300.52 1058.58 298.447M1207.04 311.882C1206.77 310.788 1206.8 308.023 1209.1 305.724C1215.99 301.858 1226.71 295.647 1234.9 290.43M1207.04 311.882C1206.63 306.956 1215.66 304.082 1223.46 301.208M1207.04 311.882C1206.06 310.569 1205.81 304.219 1205.81 301.208M1207.04 311.882C1206.67 312.023 1206.65 313.943 1209.56 320.504M1223.46 301.208C1224.69 309.282 1222.37 324.445 1209.56 320.504M1223.46 301.208C1228.69 299.602 1233.46 296.681 1236.97 294.028M1209.56 320.504C1216.11 331.048 1245.21 363.443 1250.14 374.265C1250.14 374.265 1258.75 386.573 1258.75 412.026C1258.46 419.524 1253.35 433.169 1243 444.452M1175.44 468.298C1181.19 470.35 1186.5 470.5 1186.5 470.5C1186.5 470.5 1184.61 469.105 1183.65 467.477C1185.02 467.34 1196.29 465.221 1199.25 464.564C1202.53 466.206 1204.04 465.961 1206.5 466C1205.95 465.726 1206.5 467 1204.17 462.922C1221.21 462.176 1234.06 454.194 1243 444.452M1058.58 298.447C1053.37 295.085 1049.1 291.666 1049.87 292.174C1050.85 292.831 1052.74 292.995 1053.56 292.995C1051.37 291.49 1046.66 287.577 1045.35 283.965C1046.74 286.91 1053.09 291.171 1060.19 295.329M1234.9 290.43C1240.68 286.747 1245.2 283.56 1246.22 282.04M1236.97 294.028C1239.2 292.348 1240.92 290.775 1241.93 289.713C1240.94 290.37 1239.06 290.534 1238.23 290.534C1240.31 289.104 1244.67 285.497 1246.22 282.04M1280.92 676.912C1275.67 678.422 1269.81 679.905 1263.27 681.326M1280.92 676.912C1281 677.467 1281.11 678.116 1281.25 678.819M1280.92 676.912C1283.22 676.248 1285.41 675.58 1287.48 674.909M1263.27 681.326C1273.12 693.272 1287.48 689.901 1285.02 688.67C1283.36 687.841 1281.97 682.562 1281.25 678.819M1263.27 681.326C1262.99 684.458 1262.04 690.887 1260.4 691.543C1258.75 692.2 1256.37 688.807 1254.73 686.618M1037.96 680.983C1036.87 683.819 1033.86 689.655 1030.58 690.312C1027.29 690.969 1022.37 680.776 1020.32 675.598M1037.96 680.983C1031.64 679.445 1025.77 677.625 1020.32 675.598M1020.32 675.598C1019.2 675.184 1018.11 674.762 1017.03 674.331M1017.03 674.331C1013.75 675.827 1004.72 679.578 1005.13 677.588C1005.54 675.598 1005.72 675.125 1006.86 669.789M1017.03 674.331C1013.45 672.899 1010.06 671.377 1006.86 669.789M1159.44 329.936C1161.76 329.662 1166.91 329.936 1168.88 333.22C1171.34 337.324 1184.45 357.847 1186.5 366.056C1189.79 379.202 1175.03 432.549 1168.88 437.885C1163.76 442.318 1133.17 442.077 1128.66 437.885C1122.91 432.549 1108.71 379.601 1112.24 366.056C1114.71 356.615 1124.56 340.471 1128.66 333.22C1130.52 329.936 1134.24 329.936 1140.15 329.936M1128.66 379.601C1126.2 380.422 1120.78 381.571 1118.81 379.601C1116.35 377.138 1113.89 372.623 1116.35 368.108C1118.81 363.593 1133.58 360.72 1137.69 366.056C1141.79 371.392 1144.67 379.601 1146.31 381.242C1147.62 382.556 1149.18 382.474 1150.41 382.474M1150.41 382.474C1151.64 382.474 1152.73 382.244 1154.02 380.925C1155.63 379.276 1158.46 371.031 1162.49 365.672C1166.53 360.313 1178.63 363.573 1181.05 368.108C1183.47 372.643 1181.92 376.717 1179.5 379.19C1177.56 381.169 1171.3 380.015 1168.88 379.19M1150.41 382.474V419.004M1150.41 419.004C1149.59 422.972 1144.26 429.019 1129.48 421.467C1126.2 419.004 1125.38 418.183 1125.38 415.31M1150.41 419.004C1151.25 423.008 1157.39 428.034 1171.34 422.288C1174.68 419.802 1175.03 418.62 1175.03 415.72M1026.06 537.624C1031.5 547.201 1040.5 578.012 1033.04 624.639C1034.35 623.654 1036.87 620.125 1037.96 618.483C1037.96 645.983 1052.33 664.043 1049.04 693.185C1045.76 722.327 1028.52 726.842 1021.96 747.365M1021.96 747.365C1028.94 747.365 1034.27 746.544 1036.73 744.081M1021.96 747.365C990.632 751.88 934.874 768.79 962.452 800.313C996.925 839.717 1061.77 875.015 1125.38 867.217C1188.99 859.418 1214.43 813.037 1284.2 800.313C1340.01 790.134 1389.53 817.415 1407.32 832.328C1435.22 857.913 1470.84 910.561 1390.08 916.471C1309.31 922.382 1336.96 978.586 1360.87 1005.95C1374.44 1036.46 1361.11 1082.62 1199.25 1023.19C996.925 948.897 949.32 904.568 815.532 941.509C708.502 971.061 643.579 1043.32 624.701 1124.57C606.749 1201.84 569.286 1305.56 498.301 1280.56C440.025 1260.03 375.259 1121.12 335.376 1212.42C208.975 1501.79 480.209 1295.4 430.176 1411.49C409.656 1459.1 347 1536.27 245.5 1536.27C129 1536.27 -46.9 1586.76 61.5 1967.16C84.867 2049.16 5.16667 2041.66 -27 2024.66M1036.73 744.081C1036.73 738.827 1038.92 733.409 1040.02 731.357M1036.73 744.081C1036.46 746.818 1036.32 753.111 1037.96 756.395C1044.53 755.163 1059.3 748.596 1058.89 744.081C1060.54 747.365 1074.9 760.91 1079 760.499C1082.29 760.171 1088.58 752.427 1091.31 748.596C1094.32 749.827 1101.98 752.126 1108.55 751.469C1105.68 747.365 1083.11 724.79 1085.57 713.297C1083.56 709.162 1083.47 700.015 1084.37 689.081M1089.26 567.176C1099.52 599.191 1097.06 616.841 1095.01 624.639C1093.58 630.057 1086.41 664.198 1084.37 689.081M1276.42 537.624C1271.01 547.218 1261.58 574.789 1269 621.5C1267.69 620.513 1265.66 620.273 1264.58 618.628C1270.4 627.393 1251.37 700.163 1250.55 703.446C1250.08 705.327 1254.72 714.347 1259.17 722.327M1213.52 567.229C1203.31 599.302 1205.76 616.984 1207.8 624.796C1205.23 638.462 1203.87 640.953 1202.5 641.5C1204.24 641.5 1206.11 642.946 1207.8 640.647C1208.69 642.625 1217.72 658.996 1221.39 681.326M1266.55 735.051C1268.19 737.678 1271.48 744.081 1275.99 747.775C1270.25 749.827 1250.96 747.783 1251.37 743.26C1249.73 746.55 1246.44 753.522 1244.8 757.216C1243.16 760.91 1221.26 749.971 1218.54 746.133C1215.54 747.367 1208.66 751.306 1202.12 750.648C1204.98 746.536 1219.82 727.663 1221.82 714.529C1223.3 704.775 1223.17 695.323 1222.14 686.618M1266.55 735.051C1269.42 735.735 1275.42 736.693 1276.4 735.051C1275.17 732.588 1260.81 725.311 1259.17 722.327M1266.55 735.051C1265.67 733.649 1262.48 728.277 1259.17 722.327M1221.39 681.326C1221.67 683.055 1221.92 684.821 1222.14 686.618M1221.39 681.326L1222.14 686.618M1222.14 686.618C1216.15 689.765 1196.54 695.812 1166.01 694.827C1168.63 698.767 1175.03 701.12 1177.91 701.805C1172.44 702.078 1160.34 701.64 1155.75 697.7C1152.13 698.685 1150.68 702.762 1150.41 704.678L1141.79 697.7C1138.24 697.153 1127.51 697.536 1113.07 703.446C1119.63 700.163 1124.56 696.332 1126.2 694.827C1117.33 695.611 1096.54 695.559 1084.37 689.081M1281.25 678.819C1283.33 679.943 1287.81 682.017 1289.12 681.326C1288.79 679.321 1287.89 676.212 1287.48 674.909M1246.22 282.04C1246.37 281.827 1246.44 281.647 1246.44 281.503C1246.38 281.681 1246.3 281.861 1246.22 282.04Z" stroke="#68368D"/>
</g>
<g filter="url(#filter3_d_55_3)">
<path d="M1221.76 253.069C1216.31 256.459 1222.56 276.48 1229.7 272.562C1235.63 270.711 1231.51 254.533 1226.89 253.155M1035 607.5L1036.5 614C1039 611.5 1044.76 607.807 1049.5 603.5C1055 598.5 1053 593.4 1051 590.9C1048.68 588 1046 588 1043 588.5C1039.63 589.062 1038.33 592 1038 594.5C1037.67 593.167 1036.8 590.3 1036 589.5M1046.5 596.5C1049.01 594.949 1053.97 592.287 1058.5 590.9M1063.5 590C1062.73 590 1061.88 590.096 1061 590.266M1061 590.266C1061.33 589.177 1062.2 586.8 1063 586M1061 590.266C1060.2 590.421 1059.36 590.638 1058.5 590.9M1061 590.266L1063.5 594M1058.5 590.9C1058.33 590.1 1058.5 587.8 1060.5 585M1058.5 590.9C1059 592.267 1059 593 1061 596" stroke="black" stroke-width="2"/>
</g>
</g>
<defs>
<filter id="filter0_f_55_3" x="-254.798" y="-146.372" width="2084.03" height="5272.85" filterUnits="userSpaceOnUse" color-interpolation-filters="sRGB">
<feFlood flood-opacity="0" result="BackgroundImageFix"/>
<feBlend mode="normal" in="SourceGraphic" in2="BackgroundImageFix" result="shape"/>
<feGaussianBlur stdDeviation="65" result="effect1_foregroundBlur_55_3"/>
</filter>
<filter id="filter1_f_55_3" x="-261.48" y="-169.22" width="2170.91" height="4841.58" filterUnits="userSpaceOnUse" color-interpolation-filters="sRGB">
<feFlood flood-opacity="0" result="BackgroundImageFix"/>
<feBlend mode="normal" in="SourceGraphic" in2="BackgroundImageFix" result="shape"/>
<feGaussianBlur stdDeviation="50" result="effect1_foregroundBlur_55_3"/>
</filter>
<filter id="filter2_d_55_3" x="-35.2336" y="-8.5" width="1673.13" height="2052.6" filterUnits="userSpaceOnUse" color-interpolation-filters="sRGB">
<feFlood flood-opacity="0" result="BackgroundImageFix"/>
<feColorMatrix in="SourceAlpha" type="matrix" values="0 0 0 0 0 0 0 0 0 0 0 0 0 0 0 0 0 0 127 0" result="hardAlpha"/>
<feOffset/>
<feGaussianBlur stdDeviation="4"/>
<feComposite in2="hardAlpha" operator="out"/>
<feColorMatrix type="matrix" values="0 0 0 0 0.592157 0 0 0 0 0.278431 0 0 0 0 1 0 0 0 0.75 0"/>
<feBlend mode="normal" in2="BackgroundImageFix" result="effect1_dropShadow_55_3"/>
<feBlend mode="normal" in="SourceGraphic" in2="effect1_dropShadow_55_3" result="shape"/>
</filter>
<filter id="filter3_d_55_3" x="1030.03" y="248.197" width="207.615" height="371.786" filterUnits="userSpaceOnUse" color-interpolation-filters="sRGB">
<feFlood flood-opacity="0" result="BackgroundImageFix"/>
<feColorMatrix in="SourceAlpha" type="matrix" values="0 0 0 0 0 0 0 0 0 0 0 0 0 0 0 0 0 0 127 0" result="hardAlpha"/>
<feOffset/>
<feGaussianBlur stdDeviation="2"/>
<feComposite in2="hardAlpha" operator="out"/>
<feColorMatrix type="matrix" values="0 0 0 0 0.792157 0 0 0 0 0.909804 0 0 0 0 0.580392 0 0 0 1 0"/>
<feBlend mode="normal" in2="BackgroundImageFix" result="effect1_dropShadow_55_3"/>
<feBlend mode="normal" in="SourceGraphic" in2="effect1_dropShadow_55_3" result="shape"/>
</filter>
<clipPath id="clip0_55_3">
<rect width="1600" height="4739" fill="white"/>
</clipPath>
</defs>
</svg>
