<svg width="28" height="34" viewBox="0 0 28 34" fill="none" xmlns="http://www.w3.org/2000/svg">
<path d="M14 0.333252C9.39749 0.333252 5.66666 4.06409 5.66666 8.66658C5.66666 13.2691 9.39749 16.9999 14 16.9999C18.6025 16.9999 22.3333 13.2691 22.3333 8.66658C22.3333 4.06409 18.6025 0.333252 14 0.333252ZM7.74999 8.66658C7.74999 7.00898 8.40847 5.41927 9.58057 4.24717C10.7527 3.07507 12.3424 2.41659 14 2.41659C15.6576 2.41659 17.2473 3.07507 18.4194 4.24717C19.5915 5.41927 20.25 7.00898 20.25 8.66658C20.25 10.3242 19.5915 11.9139 18.4194 13.086C17.2473 14.2581 15.6576 14.9166 14 14.9166C12.3424 14.9166 10.7527 14.2581 9.58057 13.086C8.40847 11.9139 7.74999 10.3242 7.74999 8.66658ZM4.20832 20.3333C3.26916 20.3333 2.36845 20.7063 1.70428 21.3703C1.04011 22.0343 0.666877 22.9349 0.666656 23.8741V24.4999C0.666656 27.6291 2.28499 29.9724 4.76666 31.4833C7.20832 32.9691 10.4883 33.6666 14 33.6666C17.5117 33.6666 20.7917 32.9691 23.2333 31.4833C25.715 29.9724 27.3333 27.6291 27.3333 24.4999V23.8741C27.3333 23.409 27.2417 22.9485 27.0637 22.5189C26.8857 22.0892 26.6248 21.6989 26.2959 21.37C25.9671 21.0412 25.5766 20.7804 25.1469 20.6025C24.7172 20.4246 24.2567 20.3331 23.7917 20.3333H4.20832ZM2.74999 23.8741C2.75021 23.4875 2.90395 23.1167 3.17742 22.8434C3.45089 22.5701 3.82169 22.4166 4.20832 22.4166H23.7917C24.5975 22.4166 25.25 23.0691 25.25 23.8741V24.4999C25.25 26.7866 24.1167 28.5066 22.15 29.7041C20.1417 30.9266 17.2767 31.5833 14 31.5833C10.7233 31.5833 7.85832 30.9266 5.84999 29.7041C3.88332 28.5066 2.74999 26.7874 2.74999 24.4999V23.8741Z" fill="black"/>
</svg>
