<svg width="40" height="40" viewBox="0 0 40 40" fill="none" xmlns="http://www.w3.org/2000/svg">
<path d="M0.246887 4.24682C0.246887 2.03769 2.03775 0.246826 4.24689 0.246826H6.12343C8.33257 0.246826 10.1234 2.03769 10.1234 4.24683V6.12337C10.1234 8.33251 8.33257 10.1234 6.12343 10.1234H4.24689C2.03775 10.1234 0.246887 8.33251 0.246887 6.12337V4.24682ZM0.246887 19.0616C0.246887 16.8525 2.03775 15.0616 4.24689 15.0616H6.12343C8.33257 15.0616 10.1234 16.8525 10.1234 19.0616V20.9382C10.1234 23.1473 8.33257 24.9382 6.12343 24.9382H4.24689C2.03775 24.9382 0.246887 23.1473 0.246887 20.9382V19.0616ZM10.1234 33.8765C10.1234 31.6673 8.33257 29.8765 6.12343 29.8765H4.24689C2.03775 29.8765 0.246887 31.6673 0.246887 33.8765V35.753C0.246887 37.9621 2.03775 39.753 4.24689 39.753H6.12343C8.33257 39.753 10.1234 37.9621 10.1234 35.753V33.8765ZM15.0617 4.24682C15.0617 2.03769 16.8526 0.246826 19.0617 0.246826H20.9382C23.1474 0.246826 24.9382 2.03769 24.9382 4.24683V6.12337C24.9382 8.33251 23.1474 10.1234 20.9382 10.1234H19.0617C16.8526 10.1234 15.0617 8.33251 15.0617 6.12337V4.24682ZM24.9382 19.0616C24.9382 16.8525 23.1474 15.0616 20.9382 15.0616H19.0617C16.8526 15.0616 15.0617 16.8525 15.0617 19.0616V20.9382C15.0617 23.1473 16.8526 24.9382 19.0617 24.9382H20.9382C23.1474 24.9382 24.9382 23.1473 24.9382 20.9382V19.0616ZM15.0617 33.8765C15.0617 31.6673 16.8526 29.8765 19.0617 29.8765H20.9382C23.1474 29.8765 24.9382 31.6673 24.9382 33.8765V35.753C24.9382 37.9621 23.1474 39.753 20.9382 39.753H19.0617C16.8526 39.753 15.0617 37.9621 15.0617 35.753V33.8765ZM39.7531 4.24682C39.7531 2.03769 37.9622 0.246826 35.7531 0.246826H33.8765C31.6674 0.246826 29.8765 2.03769 29.8765 4.24683V6.12337C29.8765 8.33251 31.6674 10.1234 33.8765 10.1234H35.7531C37.9622 10.1234 39.7531 8.33251 39.7531 6.12337V4.24682ZM29.8765 19.0616C29.8765 16.8525 31.6674 15.0616 33.8765 15.0616H35.7531C37.9622 15.0616 39.7531 16.8525 39.7531 19.0616V20.9382C39.7531 23.1473 37.9622 24.9382 35.7531 24.9382H33.8765C31.6674 24.9382 29.8765 23.1473 29.8765 20.9382V19.0616ZM39.7531 33.8765C39.7531 31.6673 37.9622 29.8765 35.7531 29.8765H33.8765C31.6674 29.8765 29.8765 31.6673 29.8765 33.8765V35.753C29.8765 37.9621 31.6674 39.753 33.8765 39.753H35.7531C37.9622 39.753 39.7531 37.9621 39.7531 35.753V33.8765Z" fill="black"/>
</svg>
